<?xml version="1.0" encoding="UTF-8"?>
<svg id="Calque_2" data-name="Calque 2" xmlns="http://www.w3.org/2000/svg" viewBox="0 0 32.75 30.81">
  <defs>
    <style>
      .cls-1 {
        fill: #1d638f;
        stroke: #1d638f;
        stroke-miterlimit: 10;
        stroke-width: .75px;
      }
    </style>
  </defs>
  <g id="burger_menu">
    <path class="cls-1" d="m1.2.38h30.35c.46,0,.83.46.83,1.03h0c0,.57-.37,1.03-.83,1.03H1.2c-.46,0-.83-.46-.83-1.03H.38C.38.84.75.38,1.2.38Z"/>
    <path class="cls-1" d="m1.2,14.38h30.35c.46,0,.83.46.83,1.03h0c0,.57-.37,1.03-.83,1.03H1.2c-.46,0-.83-.46-.83-1.03H.38c0-.57.37-1.03.83-1.03Z"/>
    <path class="cls-1" d="m1.2,28.38h30.35c.46,0,.83.46.83,1.03h0c0,.57-.37,1.03-.83,1.03H1.2c-.46,0-.83-.46-.83-1.03H.38c0-.57.37-1.03.83-1.03Z"/>
  </g>
</svg>