
        <svg xmlns="http://www.w3.org/2000/svg" xmlns:xlink="http://www.w3.org/1999/xlink" version="1.1" width="3162.3083859332733" 
        height="831.2764413672783" viewBox="0 0 3162.3083859332733 831.2764413672783">
			
			<g transform="scale(8.115419296663662) translate(10, 10)">
				<defs id="SvgjsDefs13111"></defs><g id="SvgjsG13112" featureKey="symbolFeature-0" transform="matrix(1.287995787285263,0,0,1.287995787285263,-16.35754625285714,-16.74394523470842)" fill="#1d638f"><g xmlns="http://www.w3.org/2000/svg"><g><path d="M45,76.1c-4,0-8.2-7.1-10.2-17.3l-0.2-1.2h20.8l-0.2,1.2C53.2,69,49,76.1,45,76.1z M37,59.6c2.1,10,5.9,14.5,8,14.5    s5.8-4.5,8-14.5H37z"></path></g><g><path d="M39.4,77l-2.7-0.7c-9.1-2.4-16.6-8.7-20.8-17.2l-0.7-1.4h16.4l0.1,0.8c1.2,7,3.3,12.6,5.9,16.2L39.4,77z M18.4,59.6    C22,66,27.7,71,34.6,73.5c-2-3.6-3.6-8.3-4.6-13.8H18.4z"></path></g><g><path d="M50.6,77l1.7-2.3C55,71,57,65.4,58.2,58.5l0.1-0.8h16.4l-0.7,1.4C70,67.5,62.4,73.8,53.4,76.2L50.6,77z M60,59.6    c-1,5.6-2.6,10.3-4.6,13.8C62.3,71,68,66,71.6,59.6H60z"></path></g></g><g xmlns="http://www.w3.org/2000/svg"><g><path d="M55.8,54.6H34.2l-0.1-0.9c-0.3-2.8-0.5-5.8-0.5-8.7s0.2-5.9,0.5-8.7l0.1-0.9h21.6l0.1,0.9c0.3,2.8,0.5,5.8,0.5,8.7    s-0.2,5.9-0.5,8.7L55.8,54.6z M36,52.6h18c0.2-2.5,0.4-5,0.4-7.6s-0.1-5.2-0.4-7.6H36c-0.2,2.5-0.4,5-0.4,7.6S35.7,50.2,36,52.6z"></path></g><g><path d="M75.9,54.6H58.8l0.1-1.1c0.3-2.8,0.5-5.7,0.5-8.5s-0.2-5.7-0.5-8.5l-0.1-1.1h17.1l0.2,0.7c0.8,2.9,1.3,5.9,1.3,8.9    s-0.4,6-1.3,8.9L75.9,54.6z M61,52.6h13.3c0.7-2.5,1-5.1,1-7.6s-0.3-5.1-1-7.6H61c0.2,2.5,0.4,5.1,0.4,7.6S61.3,50.1,61,52.6z"></path></g><g><path d="M31.2,54.6H14.1l-0.2-0.7C13.1,51,12.7,48,12.7,45s0.4-6,1.3-8.9l0.2-0.7h17.1l-0.1,1.1c-0.3,2.8-0.5,5.7-0.5,8.5    s0.2,5.7,0.5,8.5L31.2,54.6z M15.6,52.6H29c-0.2-2.5-0.4-5.1-0.4-7.6s0.1-5.1,0.4-7.6H15.6c-0.7,2.5-1,5.1-1,7.6    S15,50.1,15.6,52.6z"></path></g></g><g xmlns="http://www.w3.org/2000/svg"><g><path d="M74.8,32.4H58.4l-0.1-0.8C57,24.6,55,19,52.3,15.3L50.6,13l2.7,0.7c9.1,2.4,16.6,8.7,20.8,17.2L74.8,32.4z M60,30.4h11.5    C68,24,62.3,19,55.4,16.5C57.4,20.1,59,24.8,60,30.4z"></path></g><g><path d="M31.6,32.4H15.2l0.7-1.4c4.1-8.5,11.7-14.7,20.8-17.2l2.7-0.7l-1.7,2.3C35,19,33,24.6,31.8,31.5L31.6,32.4z M18.4,30.4H30    c1-5.6,2.6-10.3,4.6-13.8C27.7,19,22,24,18.4,30.4z"></path></g><g><path d="M55.4,32.4H34.6l0.2-1.2C36.8,21,41,13.9,45,13.9s8.2,7.1,10.2,17.3L55.4,32.4z M37,30.4H53c-2.1-10-5.9-14.5-8-14.5    S39.2,20.4,37,30.4z"></path></g></g></g><g id="SvgjsG13113" featureKey="nameFeature-0" transform="matrix(0.5657508501402302,0,0,0.5657508501402302,100.51069620542879,11.74983334085455)" fill="#eb7541"><path d="M8.72 26.8 l0 13.2 l-4.32 0 l0 -29.84 l4.32 0 l0 12.24 q1.6 -0.8 3.8 -0.8 q0.8 0 3.88 0.36 q4.32 0.52 5.84 0.52 q2.32 0 4.04 -0.76 l0 -11.56 l4.36 0 l0 29.84 l-4.36 0 l0 -13.88 q-1.72 0.76 -4.04 0.76 q-1.52 0 -5.84 -0.52 q-3.08 -0.36 -3.88 -0.36 q-2.2 0 -3.8 0.8 z M50.465999999999994 22.92 l5.28 0 q4.4 0 4.4 -4.24 q0 -2.2 -1.1 -3.18 t-3.3 -0.98 l-10.96 0 l0 9.6 q1.24 -0.72 2.8 -1 q1.16 -0.2 2.88 -0.2 z M44.785999999999994 40 l-4.36 0 l0 -29.84 l15.32 0 q2.64 0 4.6 1.02 t3.04 2.94 t1.08 4.54 t-1.08 4.58 t-3.06 3.02 t-4.58 1.06 l-5.28 0 q-3.44 0 -5.68 1.2 l0 11.48 z M116.518 10.16 l4.6 0 l-9.52 29.84 l-4.72 0 l-5.76 -17.64 l-5.6 17.64 l-4.72 0 l-10.12 -29.84 l4.48 0 l7.92 22.32 l5.6 -17.6 l-1.52 -4.72 l4.48 0 l7.52 22.32 z M132.26399999999998 28.04 l0 7.6 l18.4 0 l0 4.36 l-22.76 0 l0 -29.84 l21 0 l0 4.4 l-16.64 0 l0 9.04 q1.24 -0.72 2.76 -0.96 q1.12 -0.2 2.88 -0.2 l6.52 0 l0 4.44 l-6.52 0 q-1.64 0 -2.88 0.2 q-1.52 0.28 -2.76 0.96 z M162.97 14.559999999999999 l0 9.12 q1.24 -0.72 2.8 -1 q1.16 -0.2 2.88 -0.2 l5.12 0 q2.08 0 3.26 -1.04 t1.18 -3.08 q0 -3.8 -4.44 -3.8 l-10.8 0 z M162.97 28.119999999999997 l0 7.52 l11.24 0 q1.32 0 2.52 -0.48 q1.32 -0.48 2.08 -1.4 q0.88 -1.08 0.88 -2.48 q0 -2.4 -1.88 -3.48 q-1.48 -0.88 -4.04 -0.88 l-5.12 0 q-3.44 0 -5.68 1.2 z M184.01 31.84 q0 2.8 -1.56 4.76 q-1.36 1.72 -3.84 2.6 q-2.2 0.8 -4.84 0.8 l-15.12 0 l0 -29.84 l15.12 0 q2.56 0 4.54 0.96 t3.1 2.76 q1.16 1.88 1.16 4.44 q0 1.96 -0.7 3.5 t-1.98 2.38 q1.72 0.8 2.84 2.64 q1.28 2.12 1.28 5 z M227.22199999999998 30.92 q0 2.92 -1.76 5.2 q-1.72 2.16 -4.74 3.36 t-6.82 1.2 q-3.48 0 -6.76 -1.62 t-5.52 -4.5 l3.12 -2.92 q3.88 4.68 9.16 4.68 q2.32 0 4.24 -0.56 q2.12 -0.64 3.28 -1.8 q1.32 -1.28 1.32 -3.04 q0 -2.12 -1.32 -3.2 q-1.12 -0.92 -3.32 -1.2 q-1.28 -0.16 -4.2 -0.16 q-5.36 0 -8.18 -1.96 t-2.82 -5.76 q0 -2.4 1.42 -4.56 t3.9 -3.44 q2.56 -1.36 5.68 -1.36 q3.52 0 6.36 1.08 q3.04 1.16 5.64 3.64 l-2.72 3.2 q-2.44 -1.96 -4.44 -2.74 t-4.84 -0.78 q-1.64 0 -3.06 0.68 t-2.26 1.82 t-0.84 2.42 q0 3.44 6.36 3.44 q5.08 0 8.04 1.04 q2.8 1 4 3.04 q1.08 1.8 1.08 4.8 z M260.408 24.880000000000003 q0 -3.2 -1.64 -5.8 q-1.56 -2.52 -4.26 -3.96 t-5.86 -1.44 q-3.28 0 -5.98 1.48 t-4.22 4.04 q-1.56 2.68 -1.56 5.96 q0 3.12 1.68 5.76 q1.6 2.48 4.3 3.94 t5.84 1.46 t5.84 -1.52 t4.26 -4.08 q1.6 -2.68 1.6 -5.84 z M264.728 25.119999999999997 q0 4.32 -2.24 7.96 q-2.16 3.48 -5.86 5.54 t-7.98 2.06 q-4.44 0 -8.16 -2.16 q-3.64 -2.08 -5.72 -5.72 q-2.16 -3.72 -2.16 -8.16 q0 -4.28 2.28 -7.88 q2.16 -3.44 5.86 -5.46 t7.94 -2.02 q4.36 0 8.08 2.12 q3.64 2.08 5.76 5.64 q2.2 3.72 2.2 8.08 z M293.43399999999997 40 l-20.92 0 l0 -29.84 l4.36 0 l0 25.48 l16.56 0 l0 4.36 z M312.61999999999995 40.68 q-4.2 0 -7.22 -1.46 t-4.6 -4.22 t-1.58 -6.6 l0 -18.24 l4.32 0 l0 18.24 q0 3.84 2.36 5.88 t6.72 2.04 t6.72 -2.04 t2.36 -5.88 l0 -18.24 l4.32 0 l0 18.24 q0 3.84 -1.58 6.6 t-4.6 4.22 t-7.22 1.46 z M357.606 14.559999999999999 l-10.52 0 l0 25.44 l-4.24 0 l0 -25.44 l-10.64 0 l0 -4.4 l25.4 0 l0 4.4 z M368.472 40 l-4.28 0 l0 -29.84 l4.28 0 l0 29.84 z M404.05799999999994 24.880000000000003 q0 -3.2 -1.64 -5.8 q-1.56 -2.52 -4.26 -3.96 t-5.86 -1.44 q-3.28 0 -5.98 1.48 t-4.22 4.04 q-1.56 2.68 -1.56 5.96 q0 3.12 1.68 5.76 q1.6 2.48 4.3 3.94 t5.84 1.46 t5.84 -1.52 t4.26 -4.08 q1.6 -2.68 1.6 -5.84 z M408.37799999999993 25.119999999999997 q0 4.32 -2.24 7.96 q-2.16 3.48 -5.86 5.54 t-7.98 2.06 q-4.44 0 -8.16 -2.16 q-3.64 -2.08 -5.72 -5.72 q-2.16 -3.72 -2.16 -8.16 q0 -4.28 2.28 -7.88 q2.16 -3.44 5.86 -5.46 t7.94 -2.02 q4.36 0 8.08 2.12 q3.64 2.08 5.76 5.64 q2.2 3.72 2.2 8.08 z M417.0439999999999 14.36 l-3.48 -4.2 l5.64 0 l19.16 22.8 l0 -22.8 l4.4 0 l0 29.84 l-4.32 0 l-17.12 -20.52 l0 20.52 l-4.28 0 l0 -25.64 z M475.75 30.92 q0 2.92 -1.76 5.2 q-1.72 2.16 -4.74 3.36 t-6.82 1.2 q-3.48 0 -6.76 -1.62 t-5.52 -4.5 l3.12 -2.92 q3.88 4.68 9.16 4.68 q2.32 0 4.24 -0.56 q2.12 -0.64 3.28 -1.8 q1.32 -1.28 1.32 -3.04 q0 -2.12 -1.32 -3.2 q-1.12 -0.92 -3.32 -1.2 q-1.28 -0.16 -4.2 -0.16 q-5.36 0 -8.18 -1.96 t-2.82 -5.76 q0 -2.4 1.42 -4.56 t3.9 -3.44 q2.56 -1.36 5.68 -1.36 q3.52 0 6.36 1.08 q3.04 1.16 5.64 3.64 l-2.72 3.2 q-2.44 -1.96 -4.44 -2.74 t-4.84 -0.78 q-1.64 0 -3.06 0.68 t-2.26 1.82 t-0.84 2.42 q0 3.44 6.36 3.44 q5.08 0 8.04 1.04 q2.8 1 4 3.04 q1.08 1.8 1.08 4.8 z"></path></g><g id="SvgjsG13114" featureKey="sloganFeature-0" transform="matrix(0.5454927203199076,0,0,0.5454927203199076,129.84006178577366,51.89437347223688)" fill="#eb7541"><path d="M10.801 5.888999999999999 l3.1152 0 l-5.2148 14.111 l-3.2227 0 l-5.1855 -14.111 l3.1055 0 l3.7012 10.693 z M24.2090125 20.19531 c-4.1504 0 -7.2168 -2.832 -7.2168 -7.2559 c0 -4.4336 3.0664 -7.2461 7.2168 -7.2461 c4.1406 0 7.207 2.8125 7.207 7.2461 c0 4.4238 -3.0664 7.2559 -7.207 7.2559 z M24.2090125 17.5098 c2.4316 0 4.2969 -1.709 4.2969 -4.5703 c0 -2.8516 -1.8652 -4.5508 -4.2969 -4.5508 s-4.2969 1.6992 -4.2969 4.5508 c0 2.8613 1.8652 4.5703 4.2969 4.5703 z M44.218984375 5.888999999999999 l0 2.5781 l-3.3496 0 l0 11.533 l-2.9004 0 l0 -11.533 l-3.3691 0 l0 -2.5781 l9.6191 0 z M55.810503125 20 l-3.6719 -6.2109 l-0.84961 0 l0 6.2109 l-2.9297 0 l0 -14.111 l5.1172 0 c3.1934 0 4.541 1.8848 4.541 4.2188 c0 1.8945 -1.0742 3.125 -2.9883 3.5352 l4.248 6.3574 l-3.4668 0 z M51.289103125 8.32 l0 3.3691 l1.7285 0 c1.5625 0 2.1973 -0.66406 2.1973 -1.6797 c0 -1.0059 -0.63477 -1.6895 -2.1973 -1.6895 l-1.7285 0 z M71.5334375 8.467 l-5.2344 0 l0 3.2031 l4.6387 0 l0 2.5488 l-4.6387 0 l0 3.1934 l5.2344 0 l0 2.5879 l-8.1836 0 l0 -14.111 l8.1836 0 l0 2.5781 z M92.568578125 5.888999999999999 l3.1152 0 l-5.2148 14.111 l-3.2227 0 l-5.1855 -14.111 l3.1055 0 l3.7012 10.693 z M99.726590625 20 l0 -14.111 l2.9297 0 l0 14.111 l-2.9297 0 z M112.910184375 20.19531 c-3.0273 0 -5.3906 -1.4551 -5.8203 -4.1016 l3.0273 -0.69336 c0.19531 1.582 1.3574 2.4023 2.9102 2.4023 c1.1914 0 2.1387 -0.52734 2.1289 -1.7188 c-0.0097656 -1.3281 -1.5723 -1.748 -3.291 -2.2754 c-2.0703 -0.64453 -4.2871 -1.4063 -4.2871 -4.0039 c0 -2.627 2.1484 -4.1113 4.9805 -4.1113 c2.4805 0 4.9805 1.0059 5.5469 3.7109 l-2.832 0.70313 c-0.26367 -1.4063 -1.2109 -2.0215 -2.5391 -2.0215 c-1.1816 0 -2.1875 0.48828 -2.1875 1.6504 c0 1.084 1.3867 1.4453 2.9883 1.9238 c2.1289 0.64453 4.6484 1.4648 4.6484 4.2773 c0 2.998 -2.5098 4.2578 -5.2734 4.2578 z M122.812528125 20 l0 -14.111 l2.9297 0 l0 14.111 l-2.9297 0 z M137.558621875 20.19531 c-4.1504 0 -7.2168 -2.832 -7.2168 -7.2559 c0 -4.4336 3.0664 -7.2461 7.2168 -7.2461 c4.1406 0 7.207 2.8125 7.207 7.2461 c0 4.4238 -3.0664 7.2559 -7.207 7.2559 z M137.558621875 17.5098 c2.4316 0 4.2969 -1.709 4.2969 -4.5703 c0 -2.8516 -1.8652 -4.5508 -4.2969 -4.5508 s-4.2969 1.6992 -4.2969 4.5508 c0 2.8613 1.8652 4.5703 4.2969 4.5703 z M159.02359375 5.888999999999999 l2.9199 0 l0 14.111 l-3.3887 0 l-6.25 -10.088 l0 10.088 l-2.9199 0 l0 -14.111 l3.3496 0 l6.2891 10.029 l0 -10.029 z M169.121059375 23.5938 l-2.0117 0 l1.2207 -6.3867 l2.8906 0 z M192.763828125 5.888999999999999 l2.9199 0 l0 14.111 l-3.3887 0 l-6.25 -10.088 l0 10.088 l-2.9199 0 l0 -14.111 l3.3496 0 l6.2891 10.029 l0 -10.029 z M207.50979375 20.19531 c-4.1504 0 -7.2168 -2.832 -7.2168 -7.2559 c0 -4.4336 3.0664 -7.2461 7.2168 -7.2461 c4.1406 0 7.207 2.8125 7.207 7.2461 c0 4.4238 -3.0664 7.2559 -7.207 7.2559 z M207.50979375 17.5098 c2.4316 0 4.2969 -1.709 4.2969 -4.5703 c0 -2.8516 -1.8652 -4.5508 -4.2969 -4.5508 s-4.2969 1.6992 -4.2969 4.5508 c0 2.8613 1.8652 4.5703 4.2969 4.5703 z M227.519765625 5.888999999999999 l0 2.5781 l-3.3496 0 l0 11.533 l-2.9004 0 l0 -11.533 l-3.3691 0 l0 -2.5781 l9.6191 0 z M239.111284375 20 l-3.6719 -6.2109 l-0.84961 0 l0 6.2109 l-2.9297 0 l0 -14.111 l5.1172 0 c3.1934 0 4.541 1.8848 4.541 4.2188 c0 1.8945 -1.0742 3.125 -2.9883 3.5352 l4.248 6.3574 l-3.4668 0 z M234.589884375 8.32 l0 3.3691 l1.7285 0 c1.5625 0 2.1973 -0.66406 2.1973 -1.6797 c0 -1.0059 -0.63477 -1.6895 -2.1973 -1.6895 l-1.7285 0 z M254.83421875 8.467 l-5.2344 0 l0 3.2031 l4.6387 0 l0 2.5488 l-4.6387 0 l0 3.1934 l5.2344 0 l0 2.5879 l-8.1836 0 l0 -14.111 l8.1836 0 l0 2.5781 z M275.078359375 8.467 l-5.2344 0 l0 3.2031 l4.6387 0 l0 2.5488 l-4.6387 0 l0 3.1934 l5.2344 0 l0 2.5879 l-8.1836 0 l0 -14.111 l8.1836 0 l0 2.5781 z M278.476559375 20 l5.498 -7.3633 l-5.3418 -6.748 l3.5645 0 l3.5156 4.6289 l3.5156 -4.6289 l3.5645 0 l-5.3418 6.748 l5.498 7.3633 l-3.7305 0 l-3.5059 -4.9902 l-3.5059 4.9902 l-3.7305 0 z M302.85155 5.888999999999999 c2.7637 0 4.4824 2.0508 4.4824 4.5605 c0 2.5684 -1.7188 4.4922 -4.4824 4.4922 l-2.9395 0 l0 5.0586 l-2.9297 0 l0 -14.111 l5.8691 0 z M302.36325 12.4902 c1.4648 0 2.1484 -0.81055 2.1484 -2.0801 c0 -1.2207 -0.68359 -2.0703 -2.1484 -2.0703 l-2.4512 0 l0 4.1504 l2.4512 0 z M319.902578125 8.467 l-5.2344 0 l0 3.2031 l4.6387 0 l0 2.5488 l-4.6387 0 l0 3.1934 l5.2344 0 l0 2.5879 l-8.1836 0 l0 -14.111 l8.1836 0 l0 2.5781 z M332.294878125 20 l-3.6719 -6.2109 l-0.84961 0 l0 6.2109 l-2.9297 0 l0 -14.111 l5.1172 0 c3.1934 0 4.541 1.8848 4.541 4.2188 c0 1.8945 -1.0742 3.125 -2.9883 3.5352 l4.248 6.3574 l-3.4668 0 z M327.773478125 8.32 l0 3.3691 l1.7285 0 c1.5625 0 2.1973 -0.66406 2.1973 -1.6797 c0 -1.0059 -0.63477 -1.6895 -2.1973 -1.6895 l-1.7285 0 z M348.0178125 5.888999999999999 l0 2.5781 l-3.3496 0 l0 11.533 l-2.9004 0 l0 -11.533 l-3.3691 0 l0 -2.5781 l9.6191 0 z M352.15823125 20 l0 -14.111 l2.9297 0 l0 14.111 l-2.9297 0 z M365.341825 20.19531 c-3.0273 0 -5.3906 -1.4551 -5.8203 -4.1016 l3.0273 -0.69336 c0.19531 1.582 1.3574 2.4023 2.9102 2.4023 c1.1914 0 2.1387 -0.52734 2.1289 -1.7188 c-0.0097656 -1.3281 -1.5723 -1.748 -3.291 -2.2754 c-2.0703 -0.64453 -4.2871 -1.4063 -4.2871 -4.0039 c0 -2.627 2.1484 -4.1113 4.9805 -4.1113 c2.4805 0 4.9805 1.0059 5.5469 3.7109 l-2.832 0.70313 c-0.26367 -1.4063 -1.2109 -2.0215 -2.5391 -2.0215 c-1.1816 0 -2.1875 0.48828 -2.1875 1.6504 c0 1.084 1.3867 1.4453 2.9883 1.9238 c2.1289 0.64453 4.6484 1.4648 4.6484 4.2773 c0 2.998 -2.5098 4.2578 -5.2734 4.2578 z M383.42796875 8.467 l-5.2344 0 l0 3.2031 l4.6387 0 l0 2.5488 l-4.6387 0 l0 3.1934 l5.2344 0 l0 2.5879 l-8.1836 0 l0 -14.111 l8.1836 0 l0 2.5781 z M389.75586875 20.19531 c-0.86914 0 -1.6016 -0.72266 -1.6016 -1.6016 s0.73242 -1.6211 1.6016 -1.6211 c0.88867 0 1.6211 0.74219 1.6211 1.6211 s-0.73242 1.6016 -1.6211 1.6016 z"></path></g>
			</g>
		</svg>
	